<svg width="21" height="20" viewBox="0 0 21 20" fill="none" xmlns="http://www.w3.org/2000/svg">
<g clip-path="url(#clip0_47_2534)">
<path d="M10.5 0C8.4233 0 6.39323 0.58649 4.66652 1.6853C2.9398 2.78412 1.59399 4.3459 0.79927 6.17317C0.0045495 8.00043 -0.203386 10.0111 0.201759 11.9509C0.606904 13.8907 1.60693 15.6725 3.07538 17.0711C4.54383 18.4696 6.41476 19.422 8.45156 19.8079C10.4884 20.1937 12.5996 19.9957 14.5182 19.2388C16.4368 18.4819 18.0767 17.2002 19.2304 15.5557C20.3842 13.9112 21 11.9778 21 10C20.997 7.34872 19.8898 4.80684 17.9213 2.9321C15.9528 1.05736 13.2839 0.00286757 10.5 0V0ZM10.5 18.3333C8.76942 18.3333 7.07769 17.8446 5.63876 16.9289C4.19983 16.0132 3.07833 14.7117 2.41606 13.189C1.75379 11.6663 1.58051 9.99076 1.91813 8.37425C2.25575 6.75774 3.08911 5.27288 4.31282 4.10744C5.53653 2.94201 7.09563 2.14833 8.79296 1.82679C10.4903 1.50525 12.2496 1.67027 13.8485 2.301C15.4473 2.93173 16.8139 3.99984 17.7754 5.37025C18.7368 6.74066 19.25 8.35182 19.25 10C19.2475 12.2094 18.3248 14.3276 16.6844 15.8899C15.044 17.4522 12.8199 18.3309 10.5 18.3333Z" fill="#FF0000"/>
<path d="M10.5 4.16675C10.2679 4.16675 10.0454 4.25455 9.88128 4.41083C9.71719 4.56711 9.625 4.77907 9.625 5.00008V11.6667C9.625 11.8878 9.71719 12.0997 9.88128 12.256C10.0454 12.4123 10.2679 12.5001 10.5 12.5001C10.7321 12.5001 10.9546 12.4123 11.1187 12.256C11.2828 12.0997 11.375 11.8878 11.375 11.6667V5.00008C11.375 4.77907 11.2828 4.56711 11.1187 4.41083C10.9546 4.25455 10.7321 4.16675 10.5 4.16675Z" fill="#FF0000"/>
<path d="M11.375 15.0001C11.375 14.5398 10.9833 14.1667 10.5 14.1667C10.0168 14.1667 9.625 14.5398 9.625 15.0001C9.625 15.4603 10.0168 15.8334 10.5 15.8334C10.9833 15.8334 11.375 15.4603 11.375 15.0001Z" fill="#FF0000"/>
</g>
<defs>
<clipPath id="clip0_47_2534">
<rect width="21" height="20" fill="white"/>
</clipPath>
</defs>
</svg>
