<svg width="21" height="20" viewBox="0 0 21 20" fill="none" xmlns="http://www.w3.org/2000/svg">
<g clip-path="url(#clip0_521_645)">
<path d="M10.5 0C8.4233 0 6.39323 0.58649 4.66652 1.6853C2.9398 2.78412 1.59399 4.3459 0.79927 6.17317C0.0045495 8.00043 -0.203386 10.0111 0.201759 11.9509C0.606904 13.8907 1.60693 15.6725 3.07538 17.0711C4.54383 18.4696 6.41476 19.422 8.45156 19.8079C10.4884 20.1937 12.5996 19.9957 14.5182 19.2388C16.4368 18.4819 18.0767 17.2002 19.2304 15.5557C20.3842 13.9112 21 11.9778 21 10C20.997 7.34872 19.8898 4.80684 17.9213 2.9321C15.9528 1.05736 13.2839 0.00286757 10.5 0V0ZM10.5 18.3333C8.76942 18.3333 7.07769 17.8446 5.63876 16.9289C4.19983 16.0132 3.07833 14.7117 2.41606 13.189C1.75379 11.6663 1.58051 9.99076 1.91813 8.37425C2.25575 6.75774 3.08911 5.27288 4.31282 4.10744C5.53653 2.94201 7.09563 2.14833 8.79296 1.82679C10.4903 1.50525 12.2496 1.67027 13.8485 2.301C15.4473 2.93173 16.8139 3.99984 17.7754 5.37025C18.7368 6.74066 19.25 8.35182 19.25 10C19.2475 12.2094 18.3248 14.3276 16.6844 15.8899C15.044 17.4522 12.8199 18.3309 10.5 18.3333V18.3333Z" fill="#1DD200"/>
<path d="M15.216 5.16146L8.8828 12.7425C8.84022 12.7937 8.78961 12.8343 8.73389 12.862C8.67817 12.8897 8.61843 12.904 8.5581 12.904C8.49776 12.904 8.43802 12.8897 8.3823 12.862C8.32658 12.8343 8.27597 12.7937 8.23339 12.7425L5.78427 9.80785C5.74169 9.75668 5.69109 9.71607 5.63537 9.68836C5.57965 9.66066 5.51991 9.64639 5.45957 9.64639C5.39924 9.64639 5.33949 9.66066 5.28377 9.68836C5.22805 9.71607 5.17745 9.75668 5.13487 9.80785C5.09212 9.85882 5.0582 9.9194 5.03506 9.98611C5.01191 10.0528 5 10.1243 5 10.1966C5 10.2688 5.01191 10.3403 5.03506 10.407C5.0582 10.4737 5.09212 10.5343 5.13487 10.5853L7.58491 13.5177C7.84336 13.8266 8.19361 14 8.55878 14C8.92395 14 9.2742 13.8266 9.53266 13.5177L15.8654 5.93833C15.908 5.88736 15.9419 5.82682 15.965 5.76017C15.9881 5.69351 16 5.62206 16 5.54989C16 5.47773 15.9881 5.40627 15.965 5.33962C15.9419 5.27296 15.908 5.21242 15.8654 5.16146C15.8228 5.11028 15.7722 5.06968 15.7165 5.04197C15.6607 5.01426 15.601 5 15.5407 5C15.4803 5 15.4206 5.01426 15.3649 5.04197C15.3091 5.06968 15.2585 5.11028 15.216 5.16146Z" fill="#1DD200"/>
</g>
<defs>
<clipPath id="clip0_521_645">
<rect width="21" height="20" fill="white"/>
</clipPath>
</defs>
</svg>
