<svg width="25" height="23" viewBox="0 0 25 23" fill="none" xmlns="http://www.w3.org/2000/svg">
<path d="M10.8108 12.2101C10.7171 12.1171 10.6427 12.0065 10.5919 11.8846C10.5411 11.7628 10.515 11.6321 10.515 11.5001C10.515 11.368 10.5411 11.2373 10.5919 11.1155C10.6427 10.9936 10.7171 10.883 10.8108 10.7901L15.4008 6.21006C15.4945 6.1171 15.5689 6.0065 15.6197 5.88464C15.6705 5.76278 15.6966 5.63207 15.6966 5.50006C15.6966 5.36805 15.6705 5.23734 15.6197 5.11548C15.5689 4.99362 15.4945 4.88302 15.4008 4.79006C15.2134 4.60381 14.96 4.49927 14.6958 4.49927C14.4316 4.49927 14.1782 4.60381 13.9908 4.79006L9.4008 9.38006C8.839 9.94256 8.52344 10.7051 8.52344 11.5001C8.52344 12.2951 8.839 13.0576 9.4008 13.6201L13.9908 18.2101C14.1771 18.3948 14.4285 18.499 14.6908 18.5001C14.8224 18.5008 14.9529 18.4756 15.0747 18.4258C15.1965 18.3761 15.3074 18.3027 15.4008 18.2101C15.4945 18.1171 15.5689 18.0065 15.6197 17.8846C15.6705 17.7628 15.6966 17.6321 15.6966 17.5001C15.6966 17.368 15.6705 17.2373 15.6197 17.1155C15.5689 16.9936 15.4945 16.883 15.4008 16.7901L10.8108 12.2101Z" fill="#374957"/>
</svg>
