<?xml version="1.0" encoding="UTF-8"?>
<svg version="1.1" xmlns="http://www.w3.org/2000/svg" width="92" height="91">
<path d="M0 0 C1.010625 0.0825 2.02125 0.165 3.0625 0.25 C5.0625 3.25 5.0625 3.25 4.8125 5.3125 C4.0625 7.25 4.0625 7.25 2.0625 9.25 C-1.23464793 8.92028521 -2.5601839 8.6273161 -4.9375 6.25 C-4.21909413 0.35907184 -4.21909413 0.35907184 0 0 Z " fill="#B7DA6B" transform="translate(74.9375,70.75)"/>
<path d="M0 0 C3.29714793 0.32971479 4.6226839 0.6226839 7 3 C6.44444444 7.55555556 6.44444444 7.55555556 5 9 C2.0625 9.25 2.0625 9.25 -1 9 C-3 6 -3 6 -2.75 3.9375 C-2 2 -2 2 0 0 Z " fill="#A4D047" transform="translate(9,40)"/>
<path d="M0 0 C3 -0.375 3 -0.375 6 0 C8 3 8 3 7.75 5.0625 C7 7 7 7 5 9 C2.5 8.9375 2.5 8.9375 0 8 C-1.4375 5.625 -1.4375 5.625 -2 3 C-1.34 2.01 -0.68 1.02 0 0 Z " fill="#99C930" transform="translate(13,71)"/>
<path d="M0 0 C2.6875 1.4375 2.6875 1.4375 5 3 C4.25 7.75 4.25 7.75 2 10 C-0.5 9.875 -0.5 9.875 -3 9 C-4.4375 7.1875 -4.4375 7.1875 -5 5 C-4.3125 2.8125 -4.3125 2.8125 -3 1 C-2.01 0.67 -1.02 0.34 0 0 Z " fill="#BBDC75" transform="translate(7,60)"/>
<path d="M0 0 C4.55555556 0.55555556 4.55555556 0.55555556 6 2 C6.04080783 3.99958364 6.04254356 6.00045254 6 8 C3.75 9.1875 3.75 9.1875 1 10 C-1.3125 8.625 -1.3125 8.625 -3 7 C-2.25 2.25 -2.25 2.25 0 0 Z " fill="#ADD656" transform="translate(27,50)"/>
<path d="M0 0 C4.68322981 1.44099379 4.68322981 1.44099379 6.0625 3.875 C6 6 6 6 4.0625 8.25 C3.381875 8.8275 2.70125 9.405 2 10 C-2.68322981 8.55900621 -2.68322981 8.55900621 -4.0625 6.125 C-4 4 -4 4 -2.0625 1.75 C-1.381875 1.1725 -0.70125 0.595 0 0 Z " fill="#B6D96A" transform="translate(16,50)"/>
<path d="M0 0 C1.9375 0.75 1.9375 0.75 3.9375 2.75 C3.875 5.25 3.875 5.25 2.9375 7.75 C0.5625 9.1875 0.5625 9.1875 -2.0625 9.75 C-3.0525 9.09 -4.0425 8.43 -5.0625 7.75 C-5.4375 4.75 -5.4375 4.75 -5.0625 1.75 C-2.0625 -0.25 -2.0625 -0.25 0 0 Z " fill="#BBDC75" transform="translate(65.0625,50.25)"/>
<path d="M0 0 C2.3125 1.4375 2.3125 1.4375 3.375 3.3125 C3.3125 5.4375 3.3125 5.4375 1.375 7.6875 C0.694375 8.265 0.01375 8.8425 -0.6875 9.4375 C-3.125 8.75 -3.125 8.75 -5.6875 7.4375 C-6.5 4.8125 -6.5 4.8125 -6.6875 2.4375 C-3.41417157 -0.71459405 -3.41417157 -0.71459405 0 0 Z " fill="#97C92D" transform="translate(77.6875,50.5625)"/>
<path d="M0 0 C4.75 0.75 4.75 0.75 7 3 C6.44444444 7.55555556 6.44444444 7.55555556 5 9 C3.00041636 9.04080783 0.99954746 9.04254356 -1 9 C-2.1875 6.75 -2.1875 6.75 -3 4 C-1.625 1.6875 -1.625 1.6875 0 0 Z " fill="#99C930" transform="translate(56,40)"/>
<path d="M0 0 C0.6875 2.3125 0.6875 2.3125 1 5 C-0.0625 6.875 -0.0625 6.875 -2 8 C-5.1875 7.6875 -5.1875 7.6875 -8 7 C-8.6875 4.6875 -8.6875 4.6875 -9 2 C-6.73607469 -1.99516231 -4.01344788 -0.98106504 0 0 Z " fill="#BBDC75" transform="translate(18,21)"/>
<path d="M0 0 C2.5 0.25 2.5 0.25 4.5 2.25 C4.75 4.75 4.75 4.75 4.5 7.25 C2.5 9.25 2.5 9.25 0 9.5 C-2.5 9.25 -2.5 9.25 -4.5 7.25 C-4.75 4.75 -4.75 4.75 -4.5 2.25 C-2.5 0.25 -2.5 0.25 0 0 Z " fill="#94C726" transform="translate(49.5,19.75)"/>
<path d="M0 0 C2.5 0.25 2.5 0.25 4.5 2.25 C4.75 4.75 4.75 4.75 4.5 7.25 C2.5 9.25 2.5 9.25 0 9.5 C-2.5 9.25 -2.5 9.25 -4.5 7.25 C-4.75 4.75 -4.75 4.75 -4.5 2.25 C-2.5 0.25 -2.5 0.25 0 0 Z " fill="#1E507E" transform="translate(37.5,19.75)"/>
<path d="M0 0 C3 -0.375 3 -0.375 6 0 C8 3 8 3 7.75 5.0625 C7 7 7 7 5 9 C2.5 8.9375 2.5 8.9375 0 8 C-1.4375 5.625 -1.4375 5.625 -2 3 C-1.34 2.01 -0.68 1.02 0 0 Z " fill="#B6DA69" transform="translate(31,0)"/>
<path d="M0 0 C0.804375 0.12375 1.60875 0.2475 2.4375 0.375 C4.4375 3.375 4.4375 3.375 4.1875 5.4375 C3.4375 7.375 3.4375 7.375 1.4375 9.375 C-1.0625 9.3125 -1.0625 9.3125 -3.5625 8.375 C-4.875 5.8125 -4.875 5.8125 -5.5625 3.375 C-3.76123295 1.09971531 -2.9258843 0.42817819 0 0 Z " fill="#2C5B86" transform="translate(45.5625,80.625)"/>
<path d="M0 0 C3.0625 0.1875 3.0625 0.1875 5.0625 2.1875 C4.73278521 5.48464793 4.4398161 6.8101839 2.0625 9.1875 C-2.49305556 8.63194444 -2.49305556 8.63194444 -3.9375 7.1875 C-4.0625 4.1875 -4.0625 4.1875 -3.9375 1.1875 C-2.9375 0.1875 -2.9375 0.1875 0 0 Z " fill="#92C622" transform="translate(62.9375,70.8125)"/>
<path d="M0 0 C2.6875 0.875 2.6875 0.875 5 2 C5 3.98 5 5.96 5 8 C2.75 9.1875 2.75 9.1875 0 10 C-2.3125 8.625 -2.3125 8.625 -4 7 C-3.6875 4.625 -3.6875 4.625 -3 2 C-2.01 1.34 -1.02 0.68 0 0 Z " fill="#B7DA6B" transform="translate(18,60)"/>
<path d="M0 0 C2.6875 0.875 2.6875 0.875 5 2 C5.1875 4.875 5.1875 4.875 5 8 C2 10 2 10 -0.0625 9.75 C-2 9 -2 9 -4 7 C-3.8125 4.5 -3.8125 4.5 -3 2 C-2.01 1.34 -1.02 0.68 0 0 Z " fill="#92C622" transform="translate(77,60)"/>
<path d="M0 0 C2.6875 0.875 2.6875 0.875 5 2 C5.1875 4.875 5.1875 4.875 5 8 C2 10 2 10 -0.0625 9.75 C-2 9 -2 9 -4 7 C-3.8125 4.5 -3.8125 4.5 -3 2 C-2.01 1.34 -1.02 0.68 0 0 Z " fill="#92C721" transform="translate(30,60)"/>
<path d="M0 0 C4.68322981 1.44099379 4.68322981 1.44099379 6.0625 3.875 C6 6 6 6 4.0625 8.25 C3.381875 8.8275 2.70125 9.405 2 10 C-2.68322981 8.55900621 -2.68322981 8.55900621 -4.0625 6.125 C-4 4 -4 4 -2.0625 1.75 C-1.381875 1.1725 -0.70125 0.595 0 0 Z " fill="#B2D862" transform="translate(65,60)"/>
<path d="M0 0 C2.75 1.375 2.75 1.375 5 3 C4.25 7.75 4.25 7.75 2 10 C-2.55555556 9.44444444 -2.55555556 9.44444444 -4 8 C-4.04080783 6.00041636 -4.04254356 3.99954746 -4 2 C-2.3125 0.8125 -2.3125 0.8125 0 0 Z " fill="#295985" transform="translate(54,60)"/>
<path d="M0 0 C4.55555556 0.55555556 4.55555556 0.55555556 6 2 C6.04080783 3.99958364 6.04254356 6.00045254 6 8 C3.75 9.1875 3.75 9.1875 1 10 C-1.3125 8.625 -1.3125 8.625 -3 7 C-2.25 2.25 -2.25 2.25 0 0 Z " fill="#ACD554" transform="translate(86,50)"/>
<path d="M0 0 C1.9375 0.75 1.9375 0.75 3.9375 2.75 C3.8125 5.25 3.8125 5.25 2.9375 7.75 C1.125 9.1875 1.125 9.1875 -1.0625 9.75 C-3.3125 8.875 -3.3125 8.875 -5.0625 7.75 C-5.25 4.875 -5.25 4.875 -5.0625 1.75 C-2.0625 -0.25 -2.0625 -0.25 0 0 Z " fill="#A2CF43" transform="translate(6.0625,50.25)"/>
<path d="M0 0 C2.375 0.6875 2.375 0.6875 3.375 1.6875 C3.75 4.0625 3.75 4.0625 3.375 6.6875 C0.875 8.5 0.875 8.5 -1.625 9.6875 C-3.625 8.5 -3.625 8.5 -5.625 6.6875 C-6.0625 4.125 -6.0625 4.125 -5.625 1.6875 C-2.625 -0.3125 -2.625 -0.3125 0 0 Z " fill="#8FC51A" transform="translate(35.625,40.3125)"/>
<path d="M0 0 C3.125 0.375 3.125 0.375 6 1 C6.625 3.875 6.625 3.875 7 7 C6.34 7.66 5.68 8.32 5 9 C1.375 8.625 1.375 8.625 -2 8 C-2.125 5.125 -2.125 5.125 -2 2 C-1.34 1.34 -0.68 0.68 0 0 Z " fill="#A2CE41" transform="translate(84,30)"/>
<path d="M0 0 C4.75 0.75 4.75 0.75 7 3 C6.44444444 7.55555556 6.44444444 7.55555556 5 9 C3.00041636 9.04080783 0.99954746 9.04254356 -1 9 C-2.1875 6.75 -2.1875 6.75 -3 4 C-1.625 1.6875 -1.625 1.6875 0 0 Z " fill="#426C93" transform="translate(37,30)"/>
<path d="M0 0 C2.5 0.25 2.5 0.25 4.5 2.25 C4.8125 4.75 4.8125 4.75 4.5 7.25 C1.5 9.25 1.5 9.25 -1.125 8.9375 C-3.5 8.25 -3.5 8.25 -4.5 7.25 C-4.6875 4.8125 -4.6875 4.8125 -4.5 2.25 C-2.5 0.25 -2.5 0.25 0 0 Z " fill="#BBDC73" transform="translate(75.5,9.75)"/>
<path d="M0 0 C2.5 0.25 2.5 0.25 4.5 2.25 C4.75 4.75 4.75 4.75 4.5 7.25 C3.84 7.91 3.18 8.57 2.5 9.25 C-3.06818182 8.68181818 -3.06818182 8.68181818 -4.5 7.25 C-4.6875 4.8125 -4.6875 4.8125 -4.5 2.25 C-2.5 0.25 -2.5 0.25 0 0 Z " fill="#B5DA67" transform="translate(16.5,9.75)"/>
<path d="M0 0 C2.5 0.25 2.5 0.25 4.5 2.25 C4.75 4.75 4.75 4.75 4.5 7.25 C3.84 7.91 3.18 8.57 2.5 9.25 C-3.06818182 8.68181818 -3.06818182 8.68181818 -4.5 7.25 C-4.6875 4.8125 -4.6875 4.8125 -4.5 2.25 C-2.5 0.25 -2.5 0.25 0 0 Z " fill="#92C621" transform="translate(63.5,9.75)"/>
<path d="M0 0 C2.33944736 0.28730055 4.6739143 0.61936779 7 1 C7.6875 2.75 7.6875 2.75 8 5 C6.5625 7.25 6.5625 7.25 5 9 C0.25 8.25 0.25 8.25 -2 6 C-1.44444444 1.44444444 -1.44444444 1.44444444 0 0 Z " fill="#A2CF42" transform="translate(49,10)"/>
<path d="M0 0 C2 3 2 3 1.625 5.6875 C1.41875 6.450625 1.2125 7.21375 1 8 C-0.98 8.33 -2.96 8.66 -5 9 C-6.5625 6.6875 -6.5625 6.6875 -8 4 C-7.67 3.01 -7.34 2.02 -7 1 C-4.46578263 -0.26710868 -2.80561762 -0.28056176 0 0 Z " fill="#2D5C87" transform="translate(43,10)"/>
<path d="M0 0 C2.5 0.25 2.5 0.25 4.5 2.25 C4.8125 4.75 4.8125 4.75 4.5 7.25 C1.5 9.25 1.5 9.25 -1.125 8.9375 C-3.5 8.25 -3.5 8.25 -4.5 7.25 C-4.6875 4.8125 -4.6875 4.8125 -4.5 2.25 C-2.5 0.25 -2.5 0.25 0 0 Z " fill="#97C92D" transform="translate(28.5,9.75)"/>
<path d="M0 0 C2.33944736 0.28730055 4.6739143 0.61936779 7 1 C7.6875 2.75 7.6875 2.75 8 5 C6.5625 7.25 6.5625 7.25 5 9 C0.25 8.25 0.25 8.25 -2 6 C-1.44444444 1.44444444 -1.44444444 1.44444444 0 0 Z " fill="#A1CE3F" transform="translate(54,81)"/>
<path d="M0 0 C2.5 0.25 2.5 0.25 4.5 2.25 C4.125 5.375 4.125 5.375 3.5 8.25 C0.625 8.875 0.625 8.875 -2.5 9.25 C-4.5 7.25 -4.5 7.25 -4.75 4.75 C-4.40058445 1.25584452 -3.49415548 0.34941555 0 0 Z " fill="#92C623" transform="translate(33.5,80.75)"/>
<path d="M0 0 C3 0.125 3 0.125 4 1.125 C4.1875 4.0625 4.1875 4.0625 4 7.125 C3.34 7.785 2.68 8.445 2 9.125 C-1.29714793 8.79528521 -2.6226839 8.5023161 -5 6.125 C-4.27477017 0.17811542 -4.27477017 0.17811542 0 0 Z " fill="#B8DB6F" transform="translate(28,70.875)"/>
<path d="M0 0 C1.65 0.99 3.3 1.98 5 3 C4.67 4.98 4.34 6.96 4 9 C1.6875 9.625 1.6875 9.625 -1 10 C-1.99 9.34 -2.98 8.68 -4 8 C-4.4375 5.5625 -4.4375 5.5625 -4 3 C-2 1.1875 -2 1.1875 0 0 Z " fill="#A1CE3F" transform="translate(42,60)"/>
<path d="M0 0 C4.55555556 0.55555556 4.55555556 0.55555556 6 2 C5.71269945 4.33944736 5.38063221 6.6739143 5 9 C3.25 9.6875 3.25 9.6875 1 10 C-1.25 8.5625 -1.25 8.5625 -3 7 C-2.25 2.25 -2.25 2.25 0 0 Z " fill="#9BCA37" transform="translate(39,50)"/>
<path d="M0 0 C0.763125 0.20625 1.52625 0.4125 2.3125 0.625 C2.9375 3.5 2.9375 3.5 3.3125 6.625 C2.6525 7.285 1.9925 7.945 1.3125 8.625 C-2.3125 8.25 -2.3125 8.25 -5.6875 7.625 C-5.875 4.75 -5.875 4.75 -5.6875 1.625 C-2.6875 -0.375 -2.6875 -0.375 0 0 Z " fill="#5B80A1" transform="translate(47.6875,40.375)"/>
<path d="M0 0 C1 1 1 1 1.375 3.375 C1.25125 4.24125 1.1275 5.1075 1 6 C-1.5 7.8125 -1.5 7.8125 -4 9 C-5.32 8.01 -6.64 7.02 -8 6 C-7.625 3.0625 -7.625 3.0625 -7 0 C-4.31633121 -1.3418344 -2.84719317 -0.73004953 0 0 Z " fill="#83BE04" transform="translate(85,41)"/>
<path d="M0 0 C4.55555556 0.55555556 4.55555556 0.55555556 6 2 C6.125 5 6.125 5 6 8 C5 9 5 9 2.0625 9.1875 C-1 9 -1 9 -3 7 C-2.67028521 3.70285207 -2.3773161 2.3773161 0 0 Z " fill="#8EC31D" transform="translate(21,40)"/>
<path d="M0 0 C4.55555556 0.55555556 4.55555556 0.55555556 6 2 C6.125 5 6.125 5 6 8 C5 9 5 9 2.0625 9.1875 C-1 9 -1 9 -3 7 C-2.67028521 3.70285207 -2.3773161 2.3773161 0 0 Z " fill="#99CA31" transform="translate(68,40)"/>
<path d="M0 0 C2.375 0.6875 2.375 0.6875 3.375 1.6875 C3.5625 4.125 3.5625 4.125 3.375 6.6875 C1.375 8.6875 1.375 8.6875 -1.125 8.9375 C-3.625 8.6875 -3.625 8.6875 -5.625 6.6875 C-5.9375 4.1875 -5.9375 4.1875 -5.625 1.6875 C-2.625 -0.3125 -2.625 -0.3125 0 0 Z " fill="#B6D96A" transform="translate(16.625,30.3125)"/>
<path d="M0 0 C2.375 0.6875 2.375 0.6875 3.375 1.6875 C3.5625 4.125 3.5625 4.125 3.375 6.6875 C1.375 8.6875 1.375 8.6875 -1.125 8.9375 C-3.625 8.6875 -3.625 8.6875 -5.625 6.6875 C-5.9375 4.1875 -5.9375 4.1875 -5.625 1.6875 C-2.625 -0.3125 -2.625 -0.3125 0 0 Z " fill="#A0CE3E" transform="translate(75.625,30.3125)"/>
<path d="M0 0 C3.125 0.375 3.125 0.375 6 1 C6.625 3.875 6.625 3.875 7 7 C5 9 5 9 2.5 9.25 C0 9 0 9 -2 7 C-2.25 4.5 -2.25 4.5 -2 2 C-1.34 1.34 -0.68 0.68 0 0 Z " fill="#A0CE3E" transform="translate(25,30)"/>
<path d="M0 0 C2.33944736 0.28730055 4.6739143 0.61936779 7 1 C7.125 3.875 7.125 3.875 7 7 C6.34 7.66 5.68 8.32 5 9 C1.70285207 8.67028521 0.3773161 8.3773161 -2 6 C-1.44444444 1.44444444 -1.44444444 1.44444444 0 0 Z " fill="#406A91" transform="translate(43,0)"/>
<path d="M0 0 C2.5 0.25 2.5 0.25 4.5 2.25 C4.125 5.375 4.125 5.375 3.5 8.25 C1.1875 8.875 1.1875 8.875 -1.5 9.25 C-2.49 8.59 -3.48 7.93 -4.5 7.25 C-4.8125 4.75 -4.8125 4.75 -4.5 2.25 C-2.5 0.25 -2.5 0.25 0 0 Z " fill="#3C6890" transform="translate(51.5,70.75)"/>
<path d="M0 0 C2.5 0.25 2.5 0.25 4.5 2.25 C4.8125 4.75 4.8125 4.75 4.5 7.25 C1.5 9.25 1.5 9.25 -1.1875 8.875 C-1.950625 8.66875 -2.71375 8.4625 -3.5 8.25 C-4.125 5.375 -4.125 5.375 -4.5 2.25 C-2.5 0.25 -2.5 0.25 0 0 Z " fill="#9FCD3C" transform="translate(39.5,70.75)"/>
<path d="M0 0 C1.9375 0.75 1.9375 0.75 3.9375 2.75 C3.8125 5.25 3.8125 5.25 2.9375 7.75 C0.875 9.0625 0.875 9.0625 -1.0625 9.75 C-3.0625 8.5625 -3.0625 8.5625 -5.0625 6.75 C-5.5 4.1875 -5.5 4.1875 -5.0625 1.75 C-2.0625 -0.25 -2.0625 -0.25 0 0 Z " fill="#285883" transform="translate(53.0625,50.25)"/>
<path d="M0 0 C1 1 1 1 1.1875 3.4375 C1 6 1 6 -1 8 C-3.5 8.25 -3.5 8.25 -6 8 C-6.66 7.34 -7.32 6.68 -8 6 C-7.75 2.9375 -7.75 2.9375 -7 0 C-4.31633121 -1.3418344 -2.84719317 -0.73004953 0 0 Z " fill="#98C92D" transform="translate(66,31)"/>
<path d="M0 0 C4.55555556 0.55555556 4.55555556 0.55555556 6 2 C6.04080783 3.99958364 6.04254356 6.00045254 6 8 C3.69 8.33 1.38 8.66 -1 9 C-3 6 -3 6 -2.75 3.9375 C-2 2 -2 2 0 0 Z " fill="#97C82C" transform="translate(49,30)"/>
<path d="M0 0 C2.4375 0.9375 2.4375 0.9375 3.75 3 C4.0903125 3.9590625 4.0903125 3.9590625 4.4375 4.9375 C3.4475 6.2575 2.4575 7.5775 1.4375 8.9375 C-1.5325 8.4425 -1.5325 8.4425 -4.5625 7.9375 C-5.25 5.625 -5.25 5.625 -5.5625 2.9375 C-3.94493867 0.24156445 -3.15067825 -0.07684581 0 0 Z " fill="#8EC41B" transform="translate(73.5625,20.0625)"/>
<path d="M0 0 C2.97 0.495 2.97 0.495 6 1 C6.6875 3.3125 6.6875 3.3125 7 6 C5.875 7.875 5.875 7.875 4 9 C1.4375 8.9375 1.4375 8.9375 -1 8 C-2.3125 5.9375 -2.3125 5.9375 -3 4 C-2.01 2.68 -1.02 1.36 0 0 Z " fill="#95C728" transform="translate(59,20)"/>
<path d="M0 0 C1 1 1 1 1.1875 3.4375 C1 6 1 6 -1 8 C-3.5 8.3125 -3.5 8.3125 -6 8 C-8 5 -8 5 -7.75 2.375 C-7.5025 1.59125 -7.255 0.8075 -7 0 C-4.31633121 -1.3418344 -2.84719317 -0.73004953 0 0 Z " fill="#93C723" transform="translate(29,21)"/>
<path d="M0 0 C2.5 0.25 2.5 0.25 4.5 2.25 C4.8125 4.75 4.8125 4.75 4.5 7.25 C1.5 9.25 1.5 9.25 -1.1875 8.875 C-1.950625 8.66875 -2.71375 8.4625 -3.5 8.25 C-4.125 5.375 -4.125 5.375 -4.5 2.25 C-2.5 0.25 -2.5 0.25 0 0 Z " fill="#A0CD3D" transform="translate(57.5,-0.25)"/>
<path d="M0 0 C1 1 1 1 1.1875 3.4375 C1 6 1 6 -1 8 C-3.5625 8.1875 -3.5625 8.1875 -6 8 C-7 7 -7 7 -7.0625 3.4375 C-7.041875 2.303125 -7.02125 1.16875 -7 0 C-4.31633121 -1.3418344 -2.84719317 -0.73004953 0 0 Z " fill="#8FC41C" transform="translate(7,31)"/>
<path d="M0 0 C0.99 0.33 1.98 0.66 3 1 C3.04254356 2.99954746 3.04080783 5.00041636 3 7 C2 8 2 8 -0.9375 8.1875 C-4 8 -4 8 -6 6 C-5.625 3.875 -5.625 3.875 -5 2 C-5 2.99 -5 3.98 -5 5 C-2.03 5.495 -2.03 5.495 1 6 C0.67 4.02 0.34 2.04 0 0 Z " fill="#B4D963" transform="translate(24,41)"/>
<path d="M0 0 C0.78375 0.04125 1.5675 0.0825 2.375 0.125 C1.055 0.455 -0.265 0.785 -1.625 1.125 C-1.625 2.775 -1.625 4.425 -1.625 6.125 C0.025 6.455 1.675 6.785 3.375 7.125 C3.045 7.785 2.715 8.445 2.375 9.125 C0 9.25 0 9.25 -2.625 9.125 C-4.625 7.125 -4.625 7.125 -4.875 4.625 C-4.51649553 1.03995533 -3.59522993 0.17120143 0 0 Z " fill="#B6DA69" transform="translate(49.625,19.875)"/>
<path d="M0 0 C1.66611905 -0.042721 3.33382885 -0.04063832 5 0 C6 1 6 1 6.0625 3.5625 C6.041875 4.366875 6.02125 5.17125 6 6 C4.68 6 3.36 6 2 6 C0 3 0 3 0 0 Z " fill="#84BE06" transform="translate(72,73)"/>
<path d="M0 0 C1.67542976 0.28604898 3.34385343 0.61781233 5 1 C5 1.99 5 2.98 5 4 C4.34 4 3.68 4 3 4 C3 4.66 3 5.32 3 6 C1.68 6 0.36 6 -1 6 C-1.042721 4.33388095 -1.04063832 2.66617115 -1 1 C-0.67 0.67 -0.34 0.34 0 0 Z " fill="#84BE06" transform="translate(26,73)"/>
<path d="M0 0 C1.65 0 3.3 0 5 0 C5 1.32 5 2.64 5 4 C4.34 4 3.68 4 3 4 C3 4.66 3 5.32 3 6 C1.68 5.67 0.36 5.34 -1 5 C-0.67 3.35 -0.34 1.7 0 0 Z " fill="#84BE06" transform="translate(63,52)"/>
<path d="M0 0 C1.67542976 0.28604898 3.34385343 0.61781233 5 1 C5 2.32 5 3.64 5 5 C2.69 5 0.38 5 -2 5 C-1.125 1.125 -1.125 1.125 0 0 Z " fill="#1D4F7D" transform="translate(46,42)"/>
<path d="M0 0 C2.4375 0.9375 2.4375 0.9375 3.75 3 C4.0903125 3.9590625 4.0903125 3.9590625 4.4375 4.9375 C3.7775 4.9375 3.1175 4.9375 2.4375 4.9375 C2.4375 4.2775 2.4375 3.6175 2.4375 2.9375 C0.4575 2.9375 -1.5225 2.9375 -3.5625 2.9375 C-3.2325 4.5875 -2.9025 6.2375 -2.5625 7.9375 C-3.2225 7.9375 -3.8825 7.9375 -4.5625 7.9375 C-5.25 5.625 -5.25 5.625 -5.5625 2.9375 C-3.94493867 0.24156445 -3.15067825 -0.07684581 0 0 Z " fill="#B3D864" transform="translate(73.5625,20.0625)"/>
<path d="M0 0 C0 1.98 0 3.96 0 6 C-1.98 6 -3.96 6 -6 6 C-6 4.68 -6 3.36 -6 2 C-1.125 0 -1.125 0 0 0 Z " fill="#83BF03" transform="translate(17,21)"/>
<path d="M0 0 C1.67542976 0.28604898 3.34385343 0.61781233 5 1 C4.34 2.65 3.68 4.3 3 6 C1.68 6 0.36 6 -1 6 C-1.042721 4.33388095 -1.04063832 2.66617115 -1 1 C-0.67 0.67 -0.34 0.34 0 0 Z " fill="#84BE06" transform="translate(32,2)"/>
<path d="M0 0 C0 1.65 0 3.3 0 5 C-1.98 5 -3.96 5 -6 5 C-6 3.68 -6 2.36 -6 1 C-4 0 -4 0 0 0 Z " fill="#84BE08" transform="translate(21,63)"/>
<path d="M0 0 C2.31 0.33 4.62 0.66 7 1 C7 1.66 7 2.32 7 3 C4 5 4 5 0 5 C0 3.35 0 1.7 0 0 Z " fill="#81BD01" transform="translate(4,63)"/>
<path d="M0 0 C0.33 1.65 0.66 3.3 1 5 C-3.75 6.125 -3.75 6.125 -6 5 C-4.87312259 1.61936778 -3.78825335 0 0 0 Z " fill="#82BE02" transform="translate(18,31)"/>
<path d="M0 0 C0.598125 0.20625 1.19625 0.4125 1.8125 0.625 C0.8534375 1.2746875 0.8534375 1.2746875 -0.125 1.9375 C-2.45496003 3.53739177 -2.45496003 3.53739177 -3.1875 6.625 C-2.5275 6.625 -1.8675 6.625 -1.1875 6.625 C-1.1875 7.285 -1.1875 7.945 -1.1875 8.625 C-2.5075 7.965 -3.8275 7.305 -5.1875 6.625 C-5.375 4.25 -5.375 4.25 -5.1875 1.625 C-2.1875 -0.375 -2.1875 -0.375 0 0 Z " fill="#5B80A2" transform="translate(53.1875,50.375)"/>
<path d="M0 0 C1.32 0 2.64 0 4 0 C4 1.98 4 3.96 4 6 C2.35 5.67 0.7 5.34 -1 5 C-0.67 3.35 -0.34 1.7 0 0 Z " fill="#81BD00" transform="translate(74,11)"/>
<path d="M0 0 C0.4125 0.474375 0.825 0.94875 1.25 1.4375 C3.182185 3.16266518 4.48192275 3.56584875 7 4 C7.33 2.68 7.66 1.36 8 0 C8 1.98 8 3.96 8 6 C6.25 6.6875 6.25 6.6875 4 7 C1.75 5.8125 1.75 5.8125 0 4 C0 2.68 0 1.36 0 0 Z " fill="#AAD54E" transform="translate(36,53)"/>
<path d="M0 0 C2.375 0.6875 2.375 0.6875 3.375 1.6875 C3.41563832 3.35367115 3.417721 5.02138095 3.375 6.6875 C3.045 5.3675 2.715 4.0475 2.375 2.6875 C-0.55943402 2.95406572 -0.55943402 2.95406572 -3.625 3.6875 C-4.285 4.6775 -4.945 5.6675 -5.625 6.6875 C-5.8125 4.3125 -5.8125 4.3125 -5.625 1.6875 C-2.625 -0.3125 -2.625 -0.3125 0 0 Z " fill="#C1DF80" transform="translate(35.625,40.3125)"/>
<path d="M0 0 C0.78375 0.04125 1.5675 0.0825 2.375 0.125 C1.055 0.455 -0.265 0.785 -1.625 1.125 C-1.625 3.435 -1.625 5.745 -1.625 8.125 C-0.305 8.455 1.015 8.785 2.375 9.125 C0 9.25 0 9.25 -2.625 9.125 C-4.625 7.125 -4.625 7.125 -4.875 4.625 C-4.51649553 1.03995533 -3.59522993 0.17120143 0 0 Z " fill="#839FB8" transform="translate(37.625,19.875)"/>
<path d="M0 0 C0.66 0 1.32 0 2 0 C2.6875 2.3125 2.6875 2.3125 3 5 C1.875 6.875 1.875 6.875 0 8 C-2.6875 7.6875 -2.6875 7.6875 -5 7 C-5 6.67 -5 6.34 -5 6 C-3.35 6 -1.7 6 0 6 C0 4.02 0 2.04 0 0 Z " fill="#AFD65B" transform="translate(63,21)"/>
<path d="M0 0 C2.5 0.25 2.5 0.25 4.5 2.25 C4.625 4.875 4.625 4.875 4.5 7.25 C4.17 5.93 3.84 4.61 3.5 3.25 C1.19 3.25 -1.12 3.25 -3.5 3.25 C-3.83 4.57 -4.16 5.89 -4.5 7.25 C-4.625 4.875 -4.625 4.875 -4.5 2.25 C-2.5 0.25 -2.5 0.25 0 0 Z " fill="#BBDC75" transform="translate(63.5,9.75)"/>
<path d="M0 0 C3.0625 0.1875 3.0625 0.1875 5.0625 2.1875 C4.6875 4.3125 4.6875 4.3125 4.0625 6.1875 C4.0625 5.1975 4.0625 4.2075 4.0625 3.1875 C1.7525 2.8575 -0.5575 2.5275 -2.9375 2.1875 C-2.9375 3.8375 -2.9375 5.4875 -2.9375 7.1875 C-3.2675 7.1875 -3.5975 7.1875 -3.9375 7.1875 C-3.98004356 5.18795254 -3.97830783 3.18708364 -3.9375 1.1875 C-2.9375 0.1875 -2.9375 0.1875 0 0 Z " fill="#BCDD77" transform="translate(62.9375,70.8125)"/>
<path d="M0 0 C2.6875 0.875 2.6875 0.875 5 2 C5 3.98 5 5.96 5 8 C4.67 8 4.34 8 4 8 C3.67 6.35 3.34 4.7 3 3 C1.02 3.33 -0.96 3.66 -3 4 C-3.33 4.99 -3.66 5.98 -4 7 C-3.6875 4.625 -3.6875 4.625 -3 2 C-2.01 1.34 -1.02 0.68 0 0 Z " fill="#BEDD7B" transform="translate(77,60)"/>
<path d="M0 0 C2.6875 0.875 2.6875 0.875 5 2 C5 3.98 5 5.96 5 8 C4.67 8 4.34 8 4 8 C3.67 6.35 3.34 4.7 3 3 C1.02 3.33 -0.96 3.66 -3 4 C-3.33 4.99 -3.66 5.98 -4 7 C-3.6875 4.625 -3.6875 4.625 -3 2 C-2.01 1.34 -1.02 0.68 0 0 Z " fill="#BEDD7C" transform="translate(30,60)"/>
<path d="M0 0 C0.66 1.32 1.32 2.64 2 4 C0.68 5.32 -0.64 6.64 -2 8 C-4.475 7.01 -4.475 7.01 -7 6 C-7 5.34 -7 4.68 -7 4 C-4.69 4.33 -2.38 4.66 0 5 C0 3.35 0 1.7 0 0 Z " fill="#B8DB6E" transform="translate(79,52)"/>
<path d="M0 0 C0.99 0 1.98 0 3 0 C3.33 1.98 3.66 3.96 4 6 C2.35 5.67 0.7 5.34 -1 5 C-0.67 3.35 -0.34 1.7 0 0 Z " fill="#80BC00" transform="translate(15,11)"/>
<path d="M0 0 C0.78375 0.04125 1.5675 0.0825 2.375 0.125 C0.395 1.115 0.395 1.115 -1.625 2.125 C-1.625 4.105 -1.625 6.085 -1.625 8.125 C-0.635 8.455 0.355 8.785 1.375 9.125 C-3.5 8.25 -3.5 8.25 -4.625 7.125 C-4.8125 4.6875 -4.8125 4.6875 -4.625 2.125 C-2.625 0.125 -2.625 0.125 0 0 Z " fill="#BADB71" transform="translate(33.625,80.875)"/>
<path d="M0 0 C1.32 0 2.64 0 4 0 C4 1.65 4 3.3 4 5 C2.35 5 0.7 5 -1 5 C-0.67 3.35 -0.34 1.7 0 0 Z " fill="#80BC00" transform="translate(16,52)"/>
<path d="M0 0 C1 1 1 1 1.0625 3.5625 C1.041875 4.366875 1.02125 5.17125 1 6 C0.34 6 -0.32 6 -1 6 C-1.66 4.35 -2.32 2.7 -3 1 C-4.32 1.33 -5.64 1.66 -7 2 C-7 1.34 -7 0.68 -7 0 C-4.31633121 -1.3418344 -2.84719317 -0.73004953 0 0 Z " fill="#B0D75C" transform="translate(7,31)"/>
<path d="M0 0 C0.33 0.99 0.66 1.98 1 3 C-0.98 3 -2.96 3 -5 3 C-5.66 4.32 -6.32 5.64 -7 7 C-7.6875 5.1875 -7.6875 5.1875 -8 3 C-5.85915306 -0.33020635 -3.75910189 -0.30479204 0 0 Z " fill="#6B8CAB" transform="translate(48,81)"/>
<path d="M0 0 C3.125 -0.1875 3.125 -0.1875 6 0 C6.33 0.99 6.66 1.98 7 3 C4.69 2.67 2.38 2.34 0 2 C0 3.65 0 5.3 0 7 C-0.66 5.68 -1.32 4.36 -2 3 C-1.34 2.01 -0.68 1.02 0 0 Z " fill="#B8DB6E" transform="translate(13,71)"/>
<path d="M0 0 C0 1.65 0 3.3 0 5 C-2.97 4.505 -2.97 4.505 -6 4 C-6 3.34 -6 2.68 -6 2 C-3 0 -3 0 0 0 Z " fill="#80BB00" transform="translate(31,52)"/>
<path d="M0 0 C1.32 0 2.64 0 4 0 C3.67 1.65 3.34 3.3 3 5 C1.68 5 0.36 5 -1 5 C-0.67 3.35 -0.34 1.7 0 0 Z " fill="#80BC00" transform="translate(64,63)"/>
<path d="M0 0 C0.99 0.33 1.98 0.66 3 1 C3 2.32 3 3.64 3 5 C0.03 4.505 0.03 4.505 -3 4 C-3 3.34 -3 2.68 -3 2 C-2.01 1.34 -1.02 0.68 0 0 Z " fill="#7FBB00" transform="translate(87,52)"/>
<path d="M0 0 C0.99 0.33 1.98 0.66 3 1 C3.04254356 2.99954746 3.04080783 5.00041636 3 7 C2 8 2 8 -1.0625 8.0625 C-2.031875 8.041875 -3.00125 8.02125 -4 8 C-4 7.67 -4 7.34 -4 7 C-2.35 7 -0.7 7 1 7 C0.67 4.69 0.34 2.38 0 0 Z " fill="#B1D760" transform="translate(71,41)"/>
<path d="M0 0 C0.99 0.33 1.98 0.66 3 1 C2.67 2.98 2.34 4.96 2 7 C3.32 7.33 4.64 7.66 6 8 C3.625 8.1875 3.625 8.1875 1 8 C-1 5 -1 5 -0.625 2.3125 C-0.41875 1.549375 -0.2125 0.78625 0 0 Z " fill="#B8DA6F" transform="translate(22,21)"/>
<path d="M0 0 C0.33 0.99 0.66 1.98 1 3 C-1.31 2.67 -3.62 2.34 -6 2 C-6 3.65 -6 5.3 -6 7 C-6.66 6.01 -7.32 5.02 -8 4 C-7.67 3.01 -7.34 2.02 -7 1 C-4.53721199 -0.231394 -2.7204945 -0.07159196 0 0 Z " fill="#6F8FAD" transform="translate(43,10)"/>
<path d="M0 0 C0.66 0.33 1.32 0.66 2 1 C1.25 5.75 1.25 5.75 -1 8 C-3.625 7.625 -3.625 7.625 -6 7 C-3.66785852 5.79371992 -1.50357861 4.8345262 1 4 C0.67 2.68 0.34 1.36 0 0 Z " fill="#7F9BB5" transform="translate(57,62)"/>
<path d="M0 0 C1.32 0.33 2.64 0.66 4 1 C3.01 1 2.02 1 1 1 C0.34 3.31 -0.32 5.62 -1 8 C-1.66 6.68 -2.32 5.36 -3 4 C-2.01 2.68 -1.02 1.36 0 0 Z " fill="#BCDD76" transform="translate(56,40)"/>
<path d="M0 0 C1 1 1 1 1.0625 3.5625 C1.041875 4.366875 1.02125 5.17125 1 6 C0.67 4.68 0.34 3.36 0 2 C-2.31 2 -4.62 2 -7 2 C-7 1.34 -7 0.68 -7 0 C-4.31633121 -1.3418344 -2.84719317 -0.73004953 0 0 Z " fill="#BBDC74" transform="translate(85,41)"/>
<path d="M0 0 C0.33 0 0.66 0 1 0 C1 1.98 1 3.96 1 6 C-1.31 6.33 -3.62 6.66 -6 7 C-6.33 6.01 -6.66 5.02 -7 4 C-4.69 4.33 -2.38 4.66 0 5 C0 3.35 0 1.7 0 0 Z " fill="#B1D75F" transform="translate(54,32)"/>
<path d="M0 0 C0.66 0 1.32 0 2 0 C2.125 2.375 2.125 2.375 2 5 C0 7 0 7 -2.625 7.125 C-3.40875 7.08375 -4.1925 7.0425 -5 7 C-5.33 6.34 -5.66 5.68 -6 5 C-3.525 5.495 -3.525 5.495 -1 6 C-0.67 4.02 -0.34 2.04 0 0 Z " fill="#B0D75E" transform="translate(65,32)"/>
<path d="M0 0 C2.625 0.375 2.625 0.375 5 1 C2.64046906 3.35953094 1.22104383 3.49141413 -2 4 C-2.33 4.99 -2.66 5.98 -3 7 C-2.25 2.25 -2.25 2.25 0 0 Z " fill="#BDDD78" transform="translate(86,50)"/>
<path d="M0 0 C0.78375 0.04125 1.5675 0.0825 2.375 0.125 C1.055 0.455 -0.265 0.785 -1.625 1.125 C-1.625 3.105 -1.625 5.085 -1.625 7.125 C-2.615 7.125 -3.605 7.125 -4.625 7.125 C-4.75 4.75 -4.75 4.75 -4.625 2.125 C-2.625 0.125 -2.625 0.125 0 0 Z " fill="#B4D964" transform="translate(75.625,9.875)"/>
<path d="M0 0 C2.375 -0.125 2.375 -0.125 5 0 C7 2 7 2 7.125 4.625 C7.08375 5.40875 7.0425 6.1925 7 7 C6.67 5.68 6.34 4.36 6 3 C3.69 2.67 1.38 2.34 -1 2 C-0.67 1.34 -0.34 0.68 0 0 Z " fill="#BEDE79" transform="translate(26,10)"/>
<path d="M0 0 C1.20628008 2.33214148 2.1654738 4.49642139 3 7 C3.99 7.33 4.98 7.66 6 8 C1.25 7.25 1.25 7.25 -1 5 C-0.625 2.375 -0.625 2.375 0 0 Z " fill="#C4E087" transform="translate(71,72)"/>
<path d="M0 0 C2.625 0.375 2.625 0.375 5 1 C2.66785852 2.20628008 0.50357861 3.1654738 -2 4 C-2.33 4.99 -2.66 5.98 -3 7 C-2.25 2.25 -2.25 2.25 0 0 Z " fill="#C3E085" transform="translate(27,50)"/>
<path d="M0 0 C0.33 0.99 0.66 1.98 1 3 C3.97 3.495 3.97 3.495 7 4 C7 4.66 7 5.32 7 6 C6.01 6.33 5.02 6.66 4 7 C1.8125 5.8125 1.8125 5.8125 0 4 C0 2.68 0 1.36 0 0 Z " fill="#B3D863" transform="translate(77,43)"/>
<path d="M0 0 C0.66 0.66 1.32 1.32 2 2 C1.63318342 4.93453261 1.13562754 5.86437246 -1 8 C-3.125 7.625 -3.125 7.625 -5 7 C-4.01 7 -3.02 7 -2 7 C-1.34 4.69 -0.68 2.38 0 0 Z " fill="#C1DE82" transform="translate(37,1)"/>
</svg>
