<svg width="25" height="32" viewBox="0 0 25 32" fill="none" xmlns="http://www.w3.org/2000/svg">
<g clip-path="url(#clip0_48_2977)">
<path d="M1.03889 8.37522H23.8944C24.17 8.37522 24.4342 8.23714 24.629 7.99134C24.8239 7.74554 24.9333 7.41217 24.9333 7.06457C24.9333 6.71696 24.8239 6.38359 24.629 6.13779C24.4342 5.89199 24.17 5.75391 23.8944 5.75391H1.03889C0.763358 5.75391 0.499113 5.89199 0.304284 6.13779C0.109454 6.38359 0 6.71696 0 7.06457C0 7.41217 0.109454 7.74554 0.304284 7.99134C0.499113 8.23714 0.763358 8.37522 1.03889 8.37522V8.37522Z" fill="#374957"/>
<path d="M23.8944 12.3071H1.03889C0.763358 12.3071 0.499113 12.4452 0.304284 12.691C0.109454 12.9368 0 13.2702 0 13.6178C0 13.9654 0.109454 14.2988 0.304284 14.5446C0.499113 14.7904 0.763358 14.9284 1.03889 14.9284H23.8944C24.17 14.9284 24.4342 14.7904 24.629 14.5446C24.8239 14.2988 24.9333 13.9654 24.9333 13.6178C24.9333 13.2702 24.8239 12.9368 24.629 12.691C24.4342 12.4452 24.17 12.3071 23.8944 12.3071Z" fill="#374957"/>
<path d="M23.8944 25.4138H1.03889C0.763358 25.4138 0.499113 25.5519 0.304284 25.7977C0.109454 26.0435 0 26.3769 0 26.7245C0 27.0721 0.109454 27.4055 0.304284 27.6513C0.499113 27.8971 0.763358 28.0352 1.03889 28.0352H23.8944C24.17 28.0352 24.4342 27.8971 24.629 27.6513C24.8239 27.4055 24.9333 27.0721 24.9333 26.7245C24.9333 26.3769 24.8239 26.0435 24.629 25.7977C24.4342 25.5519 24.17 25.4138 23.8944 25.4138Z" fill="#374957"/>
<path d="M23.8944 18.8605H1.03889C0.763358 18.8605 0.499113 18.9986 0.304284 19.2444C0.109454 19.4902 0 19.8235 0 20.1711C0 20.5188 0.109454 20.8521 0.304284 21.0979C0.499113 21.3437 0.763358 21.4818 1.03889 21.4818H23.8944C24.17 21.4818 24.4342 21.3437 24.629 21.0979C24.8239 20.8521 24.9333 20.5188 24.9333 20.1711C24.9333 19.8235 24.8239 19.4902 24.629 19.2444C24.4342 18.9986 24.17 18.8605 23.8944 18.8605Z" fill="#374957"/>
</g>
<defs>
<clipPath id="clip0_48_2977">
<rect width="24.9333" height="31.4559" fill="white" transform="translate(0 0.51123)"/>
</clipPath>
</defs>
</svg>
